# xmcd
#
# Track frame offsets:
#	150
#	11762
#	24097
#	34335
#	48805
#	60955
#	76102
#	89782
#	99702
#	111555
#	124350
#	134065
#	147257
#	159890
#
# Disc length: 2325
#
# Revision: 5
# Processed by: cddbd v1.5.1PL0 Copyright (c) Steve Scherf et al.
# Submitted via: CDex 1.51
# Normalized: r4:DSETVAR1
#
DISCID=ba09130e
DTITLE=Various Artist - Bluegrass Breakdown
DYEAR=1998
DGENRE=
TTITLE0=Alison Krauss and Union Station - Chuck Old Hen
TTITLE1=Tony Furtado - John Henry
TTITLE2=Jason Carter - Back Up and Push
TTITLE3=Tom Adams - Bluegrass Breakdown
TTITLE4=Katy Hill - Bobby Hicks
TTITLE5=Bill Evans - Goodbye Liza Jane
TTITLE6=Dreadful Snakes - Sally Ann
TTITLE7=Ronnie and Ron McCoury - Shuckin' the Corn
TTITLE8=Johnson Mountain Boys - Orange Blossom Special
TTITLE9=Bluegrass Album Band - Foggy Mountain Chimes
TTITLE10=Stuart Duncan - Whistlin' Rufus
TTITLE11=Bill Keith - Crazy Creek
TTITLE12=Wyatt Rice - Fishers Hornpipe
TTITLE13=Nashville Bluegrass Band - Carroll County Blues
EXTD=YEAR: 1998
EXTT0=
EXTT1=
EXTT2=
EXTT3=
EXTT4=
EXTT5=
EXTT6=
EXTT7=
EXTT8=
EXTT9=
EXTT10=
EXTT11=
EXTT12=
EXTT13=
PLAYORDER=
